 <svg xmlns="http://www.w3.org/2000/svg" width="584"
                        height="501" fill="none"><g clip-path="url(#a)"><path
                                d="m302.355 420.52 17.112-5.041-4.993 17.16 4.993 17.112-17.112-4.993-17.161 4.993 5.041-17.112-5.041-17.16 17.161 5.041Z"
                                fill="#000" stroke="#fff" stroke-width=".972"
                                stroke-miterlimit="10" /></g><g
                            clip-path="url(#b)"><path
                                d="m121.471 335.912 30.602 16.673-30.602 16.808-16.74 30.534-16.74-30.534-30.602-16.808 30.601-16.673 16.741-30.669 16.74 30.669Z"
                                fill="#000" stroke="#fff" stroke-width=".972"
                                stroke-miterlimit="10" /></g><path
                            d="M548.892 378.519c-1.847 3.348-5.287 5.77-10.241 7.272-4.956 1.503-11.384 2.071-19.124 1.737-15.479-.668-36.091-4.935-60.411-12.378-48.631-14.885-111.983-42.44-178.521-79.142-66.538-36.702-123.64-75.588-162.172-108.782-19.269-16.599-33.873-31.758-42.695-44.494-4.411-6.369-7.36-12.109-8.733-17.103-1.372-4.991-1.159-9.193.688-12.541 1.847-3.348 5.287-5.77 10.24-7.272 4.957-1.503 11.385-2.071 19.126-1.737 15.478.668 36.091 4.935 60.41 12.378 48.631 14.884 111.983 42.439 178.521 79.141 66.539 36.702 123.64 75.589 162.172 108.782 19.269 16.6 33.874 31.759 42.695 44.495 4.412 6.369 7.361 12.109 8.733 17.103 1.372 4.991 1.159 9.193-.688 12.541Z"
                            stroke="#000" stroke-width=".972" /><path
                            d="M529.224 414.173c-1.847 3.348-5.287 5.77-10.241 7.272-4.956 1.503-11.385 2.071-19.125 1.737-15.478-.668-36.091-4.935-60.41-12.378-48.631-14.884-111.983-42.439-178.521-79.141-66.539-36.702-123.64-75.589-162.172-108.782-19.27-16.6-33.874-31.759-42.695-44.495-4.412-6.368-7.36-12.109-8.733-17.102-1.372-4.992-1.159-9.194.688-12.542 1.847-3.348 5.287-5.77 10.24-7.272 4.957-1.503 11.385-2.071 19.125-1.737 15.479.668 36.091 4.935 60.411 12.378 48.631 14.885 111.983 42.44 178.521 79.142 66.538 36.702 123.64 75.588 162.172 108.782 19.268 16.599 33.873 31.758 42.695 44.494 4.411 6.369 7.36 12.109 8.733 17.103 1.372 4.991 1.158 9.193-.688 12.541Z"
                            stroke="#000" stroke-width=".972" /><path
                            d="M509.557 449.829c-1.847 3.349-5.287 5.77-10.241 7.273-4.956 1.503-11.384 2.07-19.125 1.736-15.478-.667-36.091-4.934-60.41-12.378-48.631-14.884-111.983-42.439-178.521-79.141-66.538-36.702-123.64-75.588-162.172-108.782-19.269-16.6-33.874-31.759-42.695-44.494-4.412-6.369-7.36-12.109-8.733-17.103-1.372-4.992-1.159-9.193.688-12.541 1.847-3.349 5.287-5.771 10.24-7.273 4.957-1.503 11.385-2.07 19.125-1.736 15.479.667 36.092 4.934 60.411 12.378 48.631 14.884 111.983 42.439 178.521 79.141 66.538 36.702 123.64 75.588 162.172 108.782 19.269 16.6 33.874 31.758 42.695 44.494 4.411 6.369 7.361 12.109 8.733 17.103 1.372 4.991 1.159 9.193-.688 12.541Z"
                            stroke="#000" stroke-width=".972" /><circle
                            cx="127.842" cy="101.597" r="15.069"
                            fill="#8c66ff" /><circle cx="409.3" cy="422.917"
                            r="9.722" fill="#8c66ff" /><circle cx="79.231"
                            cy="62.709" r="22.847" fill="#000" /><path
                            d="M297.468 372.935c-6.129 2.095-13.134-2.056-15.57-9.254l-37.915-111.088 22.155-7.578 37.953 111.24c2.437 7.121-.533 14.586-6.623 16.68Z"
                            fill="#000" /><path
                            d="M294.155 374.305c-1.789 0-3.616-.419-5.367-1.294-3.54-1.752-6.357-5.027-7.728-9.064l-37.915-111.088a.837.837 0 0 1 .533-1.066l22.155-7.579c.229-.076.457-.076.647.038a.902.902 0 0 1 .419.495l37.953 111.241c2.551 7.54-.647 15.499-7.156 17.746a10.944 10.944 0 0 1-3.541.571Zm-49.107-121.179 37.649 110.288c1.218 3.618 3.731 6.588 6.852 8.111 2.513 1.219 5.216 1.448 7.652.61 5.634-1.943 8.375-8.95 6.091-15.614L265.605 246.08l-20.557 7.046Z"
                            fill="#000" /><path
                            d="m262.216 149.121-71.681 51.146-27.904 28.981-10.963 19.384-.038.152c-2.17 3.352-.914 11.082 3.159 18.966 3.997 7.768 9.631 13.176 13.59 13.481l-.114.076 21.052 2.285 39.4-6.284 83.634-29.933 103.963 17.823.723.038c-26.114-4.875-61.365-39.797-86.984-89.19-25.582-49.356-33.728-98.14-22.498-122.208h-.038l-44.73 94.065-.571 1.218Z"
                            fill="#8c66ff" /><path
                            d="M434.315 263.086c25.693-13.349 20.725-73.864-11.097-135.164-31.822-61.3-78.448-100.174-104.141-86.825-25.693 13.349-20.725 73.864 11.097 135.164 31.822 61.301 78.447 100.173 104.141 86.825Z"
                            fill="#fff" /><path
                            d="M423.014 266.569c-11.192 0-24.668-6.245-39.171-18.394-19.757-16.528-39.134-42.005-54.551-71.786-23.336-45.09-32.967-91.323-24.516-117.79 2.817-8.836 7.538-15.005 13.971-18.318 12.791-6.55 30.797-.99 50.744 15.69 19.757 16.528 39.134 42.005 54.551 71.786 23.374 45.09 33.005 91.323 24.516 117.79-2.817 8.836-7.538 15.005-13.971 18.318-3.464 1.828-7.347 2.704-11.573 2.704ZM330.396 39.29c-3.921 0-7.576.8-10.849 2.514-6.053 3.085-10.469 8.95-13.134 17.366-8.337 26.087 1.256 71.824 24.402 116.533 31.519 60.819 77.734 99.74 103.048 86.753 6.053-3.084 10.469-8.949 13.134-17.366 8.337-26.086-1.256-71.824-24.402-116.533-27.446-52.935-65.971-89.266-92.199-89.266Z"
                            fill="#000" /><path
                            d="M423.014 266.569c-11.192 0-24.668-6.245-39.172-18.394-19.757-16.528-39.133-42.005-54.55-71.786-23.336-45.09-32.967-91.323-24.516-117.79 2.817-8.836 7.537-15.005 13.971-18.318 8.565-4.418 19.757-3.314 32.357 3.16 12.068 6.208 25.125 17.214 37.84 31.8a.841.841 0 0 1-.077 1.18.84.84 0 0 1-1.18-.076c-25.81-29.628-51.924-42.881-68.141-34.541-6.052 3.084-10.468 8.95-13.133 17.366-8.337 26.086 1.256 71.824 24.401 116.533 27.409 52.897 65.971 89.267 92.162 89.267 3.921 0 7.575-.8 10.849-2.514 6.053-3.085 10.469-8.949 13.133-17.366 8.337-26.086-1.256-71.824-24.401-116.533-6.89-13.329-14.656-25.859-22.993-37.245-.266-.381-.19-.914.191-1.181.38-.266.913-.19 1.18.19 8.413 11.463 16.179 24.069 23.145 37.474 23.335 45.052 32.966 91.285 24.477 117.752-2.817 8.836-7.537 15.005-13.97 18.318-3.465 1.828-7.348 2.704-11.573 2.704Z"
                            fill="#000" /><path
                            d="M376.018 185.052c5.952-3.092 4.807-17.1-2.557-31.286-7.365-14.187-18.16-23.18-24.112-20.088-5.952 3.092-4.808 17.1 2.557 31.286 7.364 14.187 18.159 23.18 24.112 20.088Z"
                            fill="#8c66ff" /><path
                            d="M373.413 186.52c-6.548 0-15.684-8.455-22.27-21.213-5.482-10.587-7.728-21.478-5.71-27.762.723-2.209 1.903-3.77 3.54-4.608 6.472-3.313 17.549 5.712 25.239 20.527 5.482 10.587 7.728 21.478 5.71 27.762-.723 2.209-1.903 3.77-3.54 4.608a6.544 6.544 0 0 1-2.969.686Zm-21.47-52.631c-.8 0-1.561.152-2.208.495-1.257.648-2.17 1.866-2.741 3.656-1.866 5.865.304 16.3 5.596 26.506 7.004 13.519 17.549 22.621 22.992 19.803 1.257-.648 2.17-1.866 2.741-3.656 1.866-5.903-.342-16.3-5.596-26.506-6.167-11.844-14.998-20.298-20.784-20.298Z"
                            fill="#8c66ff" /><path
                            d="M417.228 252.364c-9.821 0-21.622-5.484-34.337-16.109-17.282-14.472-34.261-36.788-47.736-62.837-20.443-39.454-28.856-79.936-21.471-103.128 2.475-7.77 6.624-13.177 12.296-16.11 13.019-6.664 32.167 1.029 52.572 21.098a.807.807 0 0 1 0 1.181.807.807 0 0 1-1.181 0c-19.871-19.537-38.334-27.153-50.629-20.793-5.254 2.704-9.099 7.769-11.459 15.119-7.271 22.773 1.104 62.76 21.356 101.871 23.945 46.271 57.634 78.032 80.551 78.032 3.426 0 6.586-.723 9.479-2.17 5.253-2.704 9.098-7.769 11.458-15.119 7.271-22.774-1.104-62.761-21.356-101.872-6.128-11.806-12.981-22.888-20.366-32.904-.266-.38-.19-.914.191-1.18.38-.267.913-.19 1.18.19 7.461 10.13 14.351 21.25 20.518 33.132 20.442 39.454 28.855 79.936 21.47 103.129-2.474 7.769-6.624 13.176-12.296 16.109-3.121 1.561-6.547 2.361-10.24 2.361Z"
                            fill="#000" /><path
                            d="M189.356 284.392h-.077l-21.051-2.285a.618.618 0 0 1-.343-.114c-4.339-.686-9.821-6.17-13.818-13.862-4.264-8.112-5.52-16.033-3.198-19.765l.038-.115 10.964-19.422a.525.525 0 0 1 .114-.152l27.904-28.981.114-.115 71.491-51.031 45.224-95.093a.898.898 0 0 1 .495-.419c.228-.076.457-.076.647.039.419.19.609.685.419 1.104-11.459 24.563-2.399 73.386 22.498 121.446 24.934 48.137 59.69 83.783 86.451 88.695a.843.843 0 0 1 .685.914c-.038.419-.418.724-.837.762l-.723-.038h-.115l-103.772-17.785-83.444 29.857c-.038 0-.114.038-.152.038l-39.4 6.284c-.038.038-.076.038-.114.038Zm-20.519-3.884 20.519 2.208 39.209-6.283 83.597-29.895c.152-.038.266-.077.418-.038l93.418 15.994c-25.239-11.082-54.741-43.795-76.63-86.067-21.736-41.967-31.444-84.582-26.114-111.507l-40.276 84.544c-.076.115-.152.229-.266.305l-71.605 51.145-27.79 28.829-10.963 19.422c0 .038-.038.077-.038.077-1.98 3.084-.647 10.701 3.197 18.127 3.769 7.274 9.213 12.758 12.943 13.024.153 0 .267.038.381.115Z"
                            fill="#000" /><path
                            d="M262.33 148.817 307.516 53.8h.038c-11.23 24.068-3.045 72.852 22.498 122.208 25.619 49.431 60.87 84.353 87.061 89.152l-.724-.038-103.81-17.785-2.398-.419c-12.068-2.132-28.17-17.823-39.705-40.215-11.839-22.964-13.933-45.852-8.679-56.744l.533-1.142Z"
                            fill="#fff" /><path
                            d="M417.113 265.998c-.038 0 0 0 0 0l-.761-.038h-.115l-103.81-17.785-2.398-.419c-12.753-2.247-28.932-18.584-40.314-40.634-12.905-25.059-13.552-47.375-8.679-57.505l.571-1.143 45.186-94.979a.898.898 0 0 1 .495-.418c.228-.077.457-.077.647.038.419.19.609.685.419 1.104-11.459 24.563-2.399 73.386 22.498 121.446 24.934 48.137 59.69 83.783 86.451 88.695a.844.844 0 0 1 .685.914c-.114.381-.456.724-.875.724ZM303.177 64.92l-40.086 84.278-.571 1.142c-4.834 10.054-3.426 32.523 8.68 55.982 11.154 21.631 26.875 37.626 39.133 39.759l2.398.419 93.228 15.994c-25.239-11.082-54.741-43.795-76.63-86.067-21.737-41.967-31.444-84.582-26.152-111.507ZM188.213 284.278h-.076l-19.948-2.132a.607.607 0 0 1-.342-.115c-4.34-.685-9.822-6.169-13.819-13.862-4.225-8.15-5.481-16.071-3.159-19.803l.038-.114 10.963-19.422c.229-.419.724-.534 1.142-.305.419.228.533.723.305 1.142l-10.964 19.499c0 .038-.038.076-.038.076-1.979 3.085-.647 10.701 3.198 18.127 3.769 7.274 9.212 12.758 12.943 13.025.114 0 .266.038.343.114l19.49 2.095c.457.038.8.457.723.914-.038.418-.38.761-.799.761Z"
                            fill="#000" /><path
                            d="M189.545 283.441c-6.471-.457-15.532-9.635-22.117-22.317-6.967-13.443-8.603-27.343-4.34-32.294l-11.382 19.803-.076.153c-2.17 3.351-.914 11.082 3.159 18.965 3.997 7.769 9.631 13.176 13.59 13.481l-.114.076 21.28 2.133Z"
                            fill="#fff" /><path
                            d="M189.545 284.278h-.076c-.152 0-.342-.038-.495-.038l-20.785-2.094a.614.614 0 0 1-.342-.115c-4.34-.685-9.822-6.169-13.819-13.862-4.225-8.15-5.481-16.071-3.159-19.803l.038-.114 10.012-17.442c.38-.99.875-1.866 1.484-2.59.267-.343.762-.381 1.104-.152.343.266.457.723.229 1.104l-1.409 2.399c-2.246 6.056-.038 17.938 5.748 29.058 6.281 12.148 14.847 21.021 20.975 21.821l.457.038a.85.85 0 0 1 .762.914c.038.533-.305.876-.724.876Zm-20.746-3.77 14.541 1.485c-5.596-3.58-11.763-10.968-16.673-20.488-4.759-9.178-7.119-18.699-6.738-25.554l-7.576 13.215c0 .038-.038.076-.038.076-1.979 3.085-.647 10.701 3.198 18.127 3.769 7.274 9.212 12.758 12.943 13.025.114 0 .266.038.343.114Z"
                            fill="#000" /><path
                            d="m227.308 277.461 1.675-.343c-9.06 1.904-23.374-11.806-33.462-31.266-10.316-19.879-12.257-39.721-4.948-45.585l-.952.952-26.457 27.496c-4.34 4.874-2.741 18.851 4.264 32.37 6.737 13.024 16.292 22.317 22.802 22.278l37.078-5.902Z"
                            fill="#000" /><path
                            d="M190.193 284.24c-6.929 0-16.56-9.33-23.526-22.736-7.081-13.709-8.87-28.029-4.149-33.322l25.962-26.963a8.895 8.895 0 0 1 1.56-1.599.87.87 0 0 1 1.143.076c.304.343.304.838 0 1.142l-1.485 1.562c-5.292 7.083-2.665 25.211 6.586 43.071 9.973 19.27 23.906 32.485 32.433 30.886l.114-.038a.854.854 0 0 1 .99.647.854.854 0 0 1-.647.99c-.038 0-.076 0-.114.038l-1.561.305h-.038l-37.078 5.903c-.076 0-.152.038-.19.038Zm-3.921-78.299-22.498 23.383c-4.188 4.723-2.284 18.509 4.416 31.419 6.547 12.643 15.798 21.783 22.003 21.821l32.738-5.217c-8.832-3.123-19.719-14.891-28.132-31.076-7.994-15.423-11.078-31.113-8.527-40.33Zm163.082-72.281c-5.977 3.047-5.101 17.176 2.512 31.266 12.753 23.574 22.917 20.793 24.097 20.375.038 0 .038.038 0 .038l-21.889 17.632c-6.433-9.026-12.562-19.079-18.196-29.933-5.368-10.397-9.898-20.755-13.476-30.809l26.952-8.569Z"
                            fill="#000" /><path
                            d="M354.074 203.809h-.114a.898.898 0 0 1-.571-.343c-6.586-9.254-12.715-19.384-18.235-30.009-5.291-10.206-9.859-20.603-13.514-30.885-.076-.229-.076-.457.039-.647a.896.896 0 0 1 .494-.419l26.952-8.569c.419-.114.876.076 1.028.495.152.419 0 .876-.381 1.066-1.294.648-2.246 1.943-2.817 3.847-1.865 5.979.419 16.566 5.711 26.277 12.448 23.002 22.041 20.374 23.069 19.993.38-.152.837.039 1.027.381a.93.93 0 0 1-.19 1.105l-21.965 17.518a.91.91 0 0 1-.533.19Zm-30.568-61.047c3.616 9.94 8.032 19.994 13.133 29.895 5.33 10.283 11.268 20.07 17.625 29.096l18.996-15.31c-4.34-.19-12.524-3.427-22.117-21.136-5.558-10.244-7.842-21.059-5.825-27.572.267-.837.572-1.561.952-2.246l-22.764 7.273ZM461.981 79.33c17.403-9.142 24.134-30.607 15.035-47.942-9.1-17.335-30.585-23.977-47.988-14.835-17.402 9.143-24.133 30.607-15.034 47.943 9.1 17.335 30.585 23.977 47.987 14.834Z"
                            fill="#000" /><path
                            d="M429.296 40.09c1.675-2.285 4.149-3.694 6.966-3.999 2.132-.228 4.112.229 5.977 1.371.952.572 1.789 1.295 2.589 2.171.571-1.028 1.256-1.942 2.055-2.704 1.561-1.523 3.426-2.4 5.52-2.628 2.817-.304 5.558.534 7.69 2.4 2.093 1.828 3.426 4.493 3.768 7.502.343 3.085-.494 6.055-2.626 9.33-1.904 2.933-4.797 5.98-8.147 9.56-1.142 1.218-2.436 2.589-3.768 4.036-.343.38-.838.647-1.371.685-.533.077-1.028-.076-1.484-.38a264.238 264.238 0 0 0-4.569-3.123c-4.035-2.742-7.537-5.103-10.049-7.54-2.817-2.705-4.264-5.447-4.607-8.531-.304-3.009.419-5.903 2.056-8.15Z"
                            fill="#fff" /><path
                            d="M560.709 81.27c12.741-12.745 12.741-33.41 0-46.155-12.74-12.746-33.396-12.746-46.136 0-12.741 12.745-12.741 33.41 0 46.155 12.74 12.746 33.396 12.746 46.136 0Z"
                            fill="#8c66ff" /><path
                            d="M537.635 91.654c-18.425 0-33.461-15.005-33.461-33.475 0-18.432 14.998-33.475 33.461-33.475s33.461 15.005 33.461 33.475c0 18.432-14.998 33.475-33.461 33.475Zm0-65.274c-17.511 0-31.786 14.243-31.786 31.799 0 17.518 14.237 31.8 31.786 31.8 17.511 0 31.786-14.244 31.786-31.8 0-17.518-14.237-31.8-31.786-31.8Z"
                            fill="#8c66ff" /><path
                            d="M546.466 61.416c-1.827 0-3.426.876-4.492 2.246l-11.001-4.303c0-.152.038-.267.038-.419 0-.266-.038-.533-.076-.8l11.268-5.217a5.806 5.806 0 0 0 4.263 1.98c3.122 0 5.71-2.551 5.71-5.712 0-3.16-2.55-5.75-5.71-5.75-3.121 0-5.71 2.551-5.71 5.712 0 .266.038.533.076.8l-11.268 5.217a5.805 5.805 0 0 0-4.263-1.98c-3.122 0-5.71 2.551-5.71 5.712 0 3.161 2.55 5.75 5.71 5.75 1.827 0 3.426-.875 4.492-2.246l11.001 4.303c0 .152-.038.267-.038.419 0 3.16 2.551 5.75 5.71 5.75 3.122 0 5.71-2.551 5.71-5.712-.038-3.16-2.588-5.712-5.71-5.75Zm.432 123.299c14.94-10.374 18.694-30.83 8.384-45.689-10.31-14.859-30.778-18.496-45.718-8.122-14.94 10.374-18.693 30.829-8.384 45.689 10.31 14.859 30.779 18.495 45.718 8.122Z"
                            fill="#000" /><path
                            d="m520.011 173.418-4.796-26.01a1.838 1.838 0 0 1 2.284-2.095l28.36 8.036c1.447.418 1.789 2.285.609 3.199l-23.602 17.975c-1.027.837-2.588.266-2.855-1.105Z"
                            fill="#fff" /><path
                            d="M527.91 291.259c18.449-8.985 26.169-31.139 17.243-49.482-8.927-18.343-31.119-25.929-49.568-16.944-18.449 8.985-26.169 31.139-17.243 49.482 8.926 18.343 31.119 25.929 49.568 16.944Z"
                            fill="#8c66ff" /><path
                            d="M511.559 295.892c-3.959 0-7.994-.609-11.915-1.942-9.593-3.199-17.359-9.902-21.851-18.965-4.492-9.026-5.177-19.27-1.941-28.867 6.7-19.765 28.246-30.543 48.079-23.954 9.593 3.199 17.359 9.901 21.851 18.965 4.492 9.026 5.177 19.27 1.941 28.867-5.405 15.842-20.29 25.896-36.164 25.896Zm.381-73.957c-15.189 0-29.426 9.597-34.565 24.754-3.084 9.178-2.437 18.965 1.865 27.572 4.302 8.645 11.725 15.081 20.899 18.128 18.958 6.283 39.552-3.999 45.948-22.888 3.083-9.178 2.436-18.966-1.866-27.572-4.301-8.645-11.725-15.081-20.899-18.128-3.769-1.295-7.613-1.866-11.382-1.866Z"
                            fill="#000" /><path
                            d="M530.67 252.059c-.38 9.254-16.026 30.885-19.757 35.95a.908.908 0 0 1-1.522-.076c-2.361-3.808-10.164-16.604-14.238-26.963-1.637-4.113-2.664-7.845-2.55-10.473.419-10.511 9.288-18.698 19.795-18.279 10.507.495 18.691 9.33 18.272 19.841Z"
                            fill="#000" /><path
                            d="M517.793 257.469a8.722 8.722 0 0 0 0-12.333 8.714 8.714 0 0 0-12.328 0 8.724 8.724 0 0 0 0 12.333 8.714 8.714 0 0 0 12.328 0Z"
                            fill="#8c66ff" /><defs><clippath id="a"><path
                                    fill="#fff"
                                    transform="translate(284.856 415.139)"
                                    d="M0 0h35v35H0z" /></clippath><clippath
                                id="b"><path fill="#fff"
                                    transform="rotate(45 -314.964 278.575)"
                                    d="M0 0h68.372v68.372H0z" /></clippath></defs></svg>