      <svg xmlns="http://www.w3.org/2000/svg" width="408"
                        height="448" fill="none"><path
                            d="M383.274 225.422c0 2.587-1.245 5.17-3.738 7.729-2.494 2.561-6.203 5.058-11.028 7.455-9.65 4.792-23.649 9.124-40.995 12.767-34.682 7.286-82.621 11.796-135.592 11.796-52.97 0-100.91-4.51-135.592-11.796-17.346-3.643-31.345-7.975-40.994-12.767-4.826-2.397-8.534-4.894-11.029-7.455-2.493-2.559-3.738-5.142-3.738-7.729 0-2.587 1.245-5.17 3.738-7.728 2.495-2.561 6.203-5.059 11.029-7.456 9.649-4.792 23.648-9.123 40.994-12.767 34.682-7.285 82.622-11.796 135.592-11.796 52.971 0 100.91 4.511 135.592 11.796 17.346 3.644 31.345 7.975 40.995 12.767 4.825 2.397 8.534 4.895 11.028 7.456 2.493 2.558 3.738 5.141 3.738 7.728Z"
                            stroke="#000" stroke-width="1.136" /><path
                            d="M383.274 253.813c0 2.587-1.245 5.17-3.738 7.728-2.494 2.561-6.203 5.059-11.028 7.456-9.65 4.792-23.649 9.123-40.995 12.767-34.682 7.285-82.621 11.796-135.592 11.796-52.97 0-100.91-4.511-135.592-11.796-17.346-3.644-31.345-7.975-40.994-12.767-4.826-2.397-8.534-4.895-11.029-7.456-2.493-2.558-3.738-5.141-3.738-7.728 0-2.587 1.245-5.17 3.738-7.729 2.495-2.561 6.203-5.058 11.029-7.455 9.649-4.792 23.648-9.124 40.994-12.767 34.682-7.286 82.622-11.796 135.592-11.796 52.971 0 100.91 4.51 135.592 11.796 17.346 3.643 31.345 7.975 40.995 12.767 4.825 2.397 8.534 4.894 11.028 7.455 2.493 2.559 3.738 5.142 3.738 7.729Z"
                            stroke="#000" stroke-width="1.136" /><path
                            d="M383.274 282.203c0 2.587-1.245 5.17-3.738 7.729-2.494 2.561-6.203 5.059-11.028 7.455-9.65 4.792-23.649 9.124-40.995 12.768-34.682 7.285-82.621 11.795-135.592 11.795-52.97 0-100.91-4.51-135.592-11.795-17.346-3.644-31.345-7.976-40.994-12.768-4.826-2.396-8.534-4.894-11.029-7.455-2.493-2.559-3.738-5.142-3.738-7.729 0-2.586 1.245-5.169 3.738-7.728 2.495-2.561 6.203-5.059 11.029-7.455 9.649-4.792 23.648-9.124 40.994-12.768 34.682-7.285 82.622-11.796 135.592-11.796 52.971 0 100.91 4.511 135.592 11.796 17.346 3.644 31.345 7.976 40.995 12.768 4.825 2.396 8.534 4.894 11.028 7.455 2.493 2.559 3.738 5.142 3.738 7.728ZM286.568 75.666l.19 1.028.759-.72 53.525-50.79-31.764 66.6-.45.945 1.037-.137 73.156-9.628-64.844 35.21-.919.499.919.499 64.844 35.21-73.156-9.628-1.037-.137.45.944 31.764 66.6-53.525-50.789-.759-.72-.19 1.028-13.449 72.551-13.45-72.551-.19-1.028-.759.72-53.525 50.789 31.764-66.6.45-.944-1.037.137-73.156 9.628 64.844-35.21.919-.499-.919-.499-64.844-35.21 73.156 9.628 1.037.137-.45-.944-31.764-66.6 53.525 50.79.759.72.19-1.029 13.45-72.55 13.449 72.55Z"
                            stroke="#000" stroke-width="1.136" /><path
                            d="m314.569 201.006 20.202 51.172 52.603-16.111-27.412 47.7 45.394 31.082-54.384 8.308 4.001 54.87-40.404-37.339-40.404 37.339 4.001-54.87-54.384-8.308 45.394-31.082-27.412-47.7 52.603 16.111 20.202-51.172Z"
                            fill="#D9D9D9" /><path
                            d="m127.411 347.619 26.051-47.813 26.261 47.813 47.708 26.155-47.708 26.156-26.261 47.813-26.051-47.813-47.917-26.156 47.917-26.155Z"
                            fill="#8c66ff" /><circle cx="173.183" cy="211.795"
                            r="70.409" fill="#000" stroke="#000"
                            stroke-width="1.136" /><ellipse cx="149.903"
                            cy="196.464" rx="11.356" ry="22.713"
                            fill="#fff" /><ellipse cx="196.464" cy="196.464"
                            rx="11.356" ry="22.713" fill="#fff" /></svg>